<?xml version="1.0" encoding="utf-8"?>
<svg xmlns="http://www.w3.org/2000/svg" version="1.1" viewBox="-5.0 -10.0 110.0 135.0">
  <path d="m72.375 74.707c1.6992 0 3.2383 0.69141 4.3516 1.8047 1.1133 1.1133 1.8008 2.6523 1.7969 4.3516 0 1.6992-0.69141 3.2383-1.8047 4.3516-1.1133 1.1133-2.6523 1.8008-4.3516 1.7969-1.6992 0-3.2383-0.69141-4.3516-1.8047s-1.8008-2.6523-1.7969-4.3516c0-1.6992 0.69141-3.2383 1.8047-4.3516 1.1133-1.1133 2.6523-1.8008 4.3516-1.7969zm8.9336 14.312c0 0.26562-0.21484 0.48047-0.48047 0.48047h-41.383c-0.26562 0-0.48047-0.21484-0.48047-0.48047s0.21484-0.48047 0.48047-0.48047h22.379c-1.0469-0.30859-2.2773-1.1289-3.5938-2.6992-4.2539-5.0703-8.5664-13.023-12.137-22.391-3.3945-8.9062-5.6562-17.914-6.1953-24.715-1.0938-13.719-3.0469-15.188-13.535-17.293-4.4609-0.89453-7.8984-3.3906-7.6602-5.5664 0.089844-0.80859 0.75-2.1523 4.1836-2.0781 4.7852 0.10156 10.879 1.2578 14.824 2.8125 2.6094 1.0273 3.8672 2.2812 5.0859 3.4961 1.2773 1.2734 2.4141 2.3828 5.0312 3.1484-0.625-0.32812-1.1953-0.75781-1.6836-1.2734-1.1484-1.2188-1.8555-2.8945-1.8555-4.75 0-1.8516 0.71484-3.5312 1.8633-4.7461 1.1602-1.2266 2.7617-1.9844 4.5352-1.9805 1.7734 0 3.3789 0.76172 4.5352 1.9883 1.1484 1.2188 1.8555 2.8945 1.8555 4.75 0 1.8516-0.71484 3.5312-1.8633 4.7461-1.0977 1.1602-2.5938 1.8906-4.2539 1.9688 0.066406 0.011719 0.13281 0.027344 0.20312 0.039063 4.7656 0.89844 10.691 2.0156 16.383 9.8906 4.5391 6.2812 6.9922 13.777 5.25 16.043-0.32812 0.42578-1.0977 1.0547-2.5938 0.48047-1.4492-0.55469-2.543-2.6172-3.7031-4.8008-0.76953-1.4492-1.5664-2.9492-2.4258-3.9062-3.7695-4.1992-5.2656-4.043-5.7344-3.7812-1.3594 0.75781-1.3203 5.2578 0.085937 10.027 0.83984 2.8516 2.6914 5.9219 4.4844 8.8906 0.66016 1.0977 1.2891 2.1328 1.8555 3.1484 2.2852 4.082 1.25 5.8281 0.42969 6.5078-1.3047 1.0742-3.6094 0.71094-5.4844-0.86719-1.6172-1.3633-3.1055-3.8281-4.5469-6.2109-0.30469-0.50391-0.60547-1-0.89844-1.4727 0.80859 3.1211 2.3594 7.6523 3.6406 10.645 1.5352 3.5898 4.0703 8.3047 6.3477 12.445 1.7031 3.0938 1.6992 6.0703-0.003906 7.2383-0.16797 0.11328-0.35547 0.20703-0.5625 0.27734h17.137c0.26562 0 0.48047 0.21484 0.48047 0.48047zm-17.781-1.8164c0.9375-0.64453 1.1211-2.8125-0.39453-5.5625-2.293-4.168-4.8477-8.918-6.4062-12.559-1.8867-4.4141-4.2227-11.645-4.2891-14.008-0.007812-0.27734 0.16016-0.52734 0.42188-0.62109 0.25781-0.09375 0.55078-0.011719 0.72266 0.20312 0.87109 1.0938 1.75 2.5469 2.6797 4.0859 1.3867 2.293 2.8203 4.668 4.2773 5.8945 1.3555 1.1406 3.043 1.5195 3.8398 0.85938 0.85938-0.71094 0.58594-2.5391-0.73047-4.8945-0.55859-0.99609-1.1797-2.0234-1.8359-3.1133-1.832-3.0391-3.7266-6.1836-4.6172-9.1914-0.98437-3.332-2.1406-10.023 0.51953-11.508 1.6523-0.92187 4.043 0.40234 7.3125 4.043 0.96484 1.0742 1.7969 2.6445 2.6016 4.1602 0.99609 1.8789 2.0273 3.8203 3.0312 4.207 0.82422 0.31641 1.0469 0.03125 1.1172-0.066407 1.082-1.4062-0.65625-8.1211-5.2734-14.508-5.3906-7.4609-10.805-8.4805-15.582-9.3828-0.91797-0.17188-1.7852-0.33594-2.6367-0.54297-3.5352-0.84766-4.9883-2.2969-6.3945-3.6992-1.125-1.1211-2.2891-2.2812-4.6523-3.2109-3.7578-1.4805-9.8086-2.625-14.383-2.7227-0.074219 0-0.14844-0.003906-0.22266-0.003906-1.5586 0-2.5938 0.36328-2.6562 0.94141-0.125 1.1328 2.3984 3.3203 6.6367 4.168 5.6953 1.1406 8.9766 2.2031 11.102 4.8242 2.2031 2.7188 2.9375 7.0547 3.4609 13.621 0.1875 2.3281 0.59766 4.9727 1.1953 7.7969 1.4219 0.52734 3.043 0.53516 4.6133 0.53125h0.17188c0.22266 0 0.40234 0.17969 0.40234 0.40234s-0.17969 0.40234-0.40234 0.40234h-0.34375c-1.4258 0-2.8789-0.023438-4.2422-0.42578 2.8438 12.785 9.3789 29.016 16.648 37.676 2.0234 2.4102 3.5898 2.6875 4.3164 2.1875z"/>
</svg>